<svg width="16" height="16" viewBox="0 0 16 16" fill="none" xmlns="http://www.w3.org/2000/svg">
<path d="M5.484 14.716C5.70397 14.7005 5.74238 14.5571 5.86387 14.3972C6.05757 14.1422 6.19083 13.9386 6.29549 13.6346C6.65292 12.5962 6.48948 10.9708 5.22253 10.6053C4.4544 10.3837 3.75406 10.7473 3.22291 11.2911C2.93047 11.5905 2.70181 12.0937 2.87904 12.515C3.01191 12.8308 3.34354 13.005 3.61768 13.1727C3.76896 13.0777 3.94016 12.9934 4.06649 12.8641C4.29296 12.6325 4.43211 12.2299 4.47905 11.9165C4.55744 11.9168 4.64968 11.9067 4.72369 11.9381C5.02987 12.0683 4.9072 12.6794 4.80774 12.9112C4.77867 12.979 4.72778 13.035 4.69727 13.1023C4.65018 13.2062 4.63468 13.3041 4.56397 13.3978C4.46075 13.5344 4.28241 13.6217 4.22782 13.7828C4.10041 13.8002 4.01685 13.8705 3.89856 13.9126C3.69183 13.9862 3.40405 14.0132 3.18699 13.9879C3.04044 13.9709 2.86418 13.9842 2.72651 13.9307C2.53776 13.8573 2.39466 13.7249 2.24977 13.5882C1.99904 13.3515 1.75207 13.0409 1.66059 12.7C1.6191 12.5455 1.64368 12.3624 1.64368 12.2036C1.64368 11.7055 1.72225 11.2004 1.91523 10.7377C2.04096 10.4363 2.41002 10.202 2.43328 9.87073C2.62537 9.82988 2.76642 9.65115 2.91332 9.52625C3.07547 9.38839 3.27912 9.28879 3.46528 9.18719C3.61699 9.10439 3.77592 9.08802 3.94055 9.04509C4.56045 8.88355 5.20836 8.87867 5.80561 9.14932C6.11392 9.28904 6.43019 9.48677 6.65052 9.74557C6.86353 9.99577 6.96237 10.3486 7.04417 10.6501C7.19193 11.1947 7.2224 11.7485 7.13479 12.3113C7.0979 12.5484 6.9833 12.8111 6.88194 13.0286C6.82951 13.1411 6.71986 13.2496 6.77294 13.3818C6.88919 13.6713 7.42131 13.6487 7.67334 13.6769C8.68273 13.7903 9.54838 13.3376 10.1438 12.5359C10.3794 12.2188 10.5407 11.8324 10.6335 11.45C10.6821 11.2493 10.6755 10.9268 10.7958 10.768V10.6962C10.6956 10.5638 10.7241 10.3905 10.7241 10.2296C10.7808 10.2542 10.7878 10.2585 10.8317 10.3014C10.8746 10.28 10.8668 10.2847 10.9035 10.2296C11.1514 10.4033 11.495 10.2426 11.7649 10.2035C12.2406 10.1345 12.7331 9.95636 13.1138 9.65416C13.5099 9.33976 13.8413 8.91765 14.19 8.55303C14.3386 8.39766 14.4946 8.2195 14.656 8.07902C14.7838 7.96779 14.9282 7.93395 14.9592 7.75317C15.1527 7.70572 15.2952 7.57605 15.471 7.49156C15.6416 7.40955 15.8166 7.39243 16 7.35837V7.21481C15.6323 7.19898 15.3126 7.02735 15.0053 6.83971C14.4994 6.53087 14.0595 6.12466 13.6377 5.70879C13.3729 5.44783 13.1187 5.12625 12.8161 4.90918C12.1515 4.43241 11.1267 4.40556 10.3651 4.63067C10.4795 3.18211 9.53869 1.93157 8.17581 1.51186C8.03275 1.46783 7.88628 1.40082 7.73902 1.3739C7.60105 1.3487 7.46151 1.37781 7.32466 1.33912C7.17284 1.29623 6.92842 1.23131 6.81196 1.3646C6.61025 1.34716 6.55559 1.50598 6.59945 1.68759C6.67801 2.01279 6.87652 2.28955 6.9539 2.61759C7.04324 2.99627 7.0076 3.28706 6.96011 3.66481C6.93381 3.87409 6.95613 4.10311 6.9089 4.30762C6.73881 5.04363 6.32391 5.67523 5.58844 5.9292C4.36076 6.3531 2.76846 5.8956 2.08291 4.75901C1.73029 4.17435 1.54042 3.65541 1.73614 2.97879C1.81007 2.72318 1.93443 2.42374 2.18204 2.29776C2.27306 1.91187 2.92039 1.59423 3.2948 1.5806C3.51876 1.57248 3.71824 1.65098 3.94069 1.65173C3.98315 1.77387 4.07532 1.79081 4.16508 1.87598C4.27082 1.97636 4.38818 2.13439 4.44693 2.26797C4.55615 2.51623 4.5845 2.89775 4.51843 3.159C4.48031 3.30967 4.3959 3.43529 4.37138 3.58983C4.06882 3.54088 4.06534 3.12426 4.00189 2.87812C3.93926 2.63499 3.67966 2.35049 3.43682 2.28226C2.81609 2.10787 2.35734 2.60614 2.39933 3.19364C2.41271 3.38109 2.50818 3.56435 2.58258 3.7334C2.74162 4.09478 2.94124 4.42706 3.26343 4.66602C4.13282 5.31083 5.35755 4.82437 5.86631 3.95578C6.02038 3.69273 6.05193 3.41598 6.10344 3.12645C6.12551 3.00252 6.18268 2.89187 6.19568 2.76431C6.25375 2.19576 6.13922 1.62847 5.85812 1.12991C5.18427 -0.0651426 3.72998 -0.180209 2.54081 0.180063C2.21592 0.278476 1.90461 0.457175 1.63525 0.663189C1.51304 0.756613 1.40174 0.817593 1.35656 0.969805C1.05231 1.02077 0.801649 1.48649 0.639638 1.72753C0.136807 2.47553 -0.0999641 3.47839 0.0395079 4.37943C0.0827913 4.6592 0.280657 4.88779 0.315722 5.16903C0.480713 5.24472 0.523063 5.40146 0.637841 5.5321C0.841809 5.76424 1.07112 5.9756 1.31151 6.16931C2.11518 6.81696 3.10584 7.26118 4.12 7.44591C4.35584 7.48887 4.55665 7.57167 4.80207 7.57371C4.62804 7.72507 4.40067 7.65465 4.19193 7.71868C3.77402 7.84688 3.34796 7.93818 2.93575 8.08548C2.73369 8.15766 2.54372 8.32448 2.32561 8.32742C2.16952 8.48642 1.96598 8.56753 1.78778 8.69505C1.43788 8.94546 1.10177 9.28172 0.864349 9.64106C0.693438 9.8998 0.611893 10.1902 0.518182 10.4809C0.0672865 11.8797 0.269638 13.4951 1.37482 14.5483C1.88171 15.0314 2.59378 15.3464 3.29466 15.3947C3.63185 15.4179 3.96578 15.3618 4.2996 15.3243C4.62003 15.2883 4.82834 15.2009 5.10495 15.0464C5.26216 14.9585 5.42374 14.9001 5.484 14.716Z" fill="white"/>
</svg>
