<svg width="16" height="16" viewBox="0 0 16 16" fill="none" xmlns="http://www.w3.org/2000/svg">
<path d="M10.516 14.716C10.296 14.7005 10.2576 14.557 10.1361 14.3972C9.94243 14.1421 9.80917 13.9385 9.70451 13.6346C9.34708 12.5962 9.51052 10.9708 10.7775 10.6053C11.5456 10.3837 12.2459 10.7473 12.7771 11.2911C13.0695 11.5905 13.2982 12.0937 13.121 12.515C12.9881 12.8308 12.6565 13.005 12.3823 13.1727C12.231 13.0777 12.0598 12.9934 11.9335 12.8641C11.707 12.6324 11.5679 12.2298 11.5209 11.9165C11.4426 11.9168 11.3503 11.9067 11.2763 11.9381C10.9701 12.0683 11.0928 12.6793 11.1923 12.9112C11.2213 12.979 11.2722 13.035 11.3027 13.1023C11.3498 13.2062 11.3653 13.3041 11.436 13.3977C11.5392 13.5344 11.7176 13.6217 11.7722 13.7828C11.8996 13.8002 11.9831 13.8705 12.1014 13.9126C12.3082 13.9862 12.5959 14.0132 12.813 13.9879C12.9596 13.9708 13.1358 13.9842 13.2735 13.9307C13.4622 13.8572 13.6053 13.7249 13.7502 13.5881C14.001 13.3515 14.2479 13.0408 14.3394 12.7C14.3809 12.5455 14.3563 12.3624 14.3563 12.2036C14.3563 11.7055 14.2778 11.2004 14.0848 10.7377C13.959 10.4363 13.59 10.202 13.5667 9.87071C13.3746 9.82987 13.2336 9.65113 13.0867 9.52623C12.9245 9.38837 12.7209 9.28878 12.5347 9.18717C12.383 9.10437 12.2241 9.088 12.0595 9.04508C11.4395 8.88353 10.7916 8.87865 10.1944 9.14931C9.88608 9.28903 9.56981 9.48675 9.34948 9.74556C9.13647 9.99575 9.03763 10.3486 8.95583 10.65C8.80807 11.1947 8.7776 11.7485 8.86521 12.3113C8.9021 12.5484 9.0167 12.8111 9.11806 13.0286C9.17049 13.1411 9.28014 13.2496 9.22706 13.3818C9.11081 13.6713 8.57869 13.6486 8.32666 13.6769C7.31727 13.7902 6.45162 13.3375 5.85616 12.5359C5.62061 12.2188 5.45931 11.8324 5.36653 11.4499C5.31787 11.2493 5.32447 10.9268 5.20417 10.768V10.6962C5.30444 10.5638 5.27595 10.3904 5.27595 10.2296C5.21924 10.2542 5.21217 10.2585 5.16827 10.3014C5.12539 10.2799 5.13321 10.2847 5.09649 10.2296C4.84856 10.4033 4.50498 10.2425 4.23511 10.2035C3.75938 10.1345 3.26689 9.95635 2.88619 9.65415C2.49007 9.33974 2.15872 8.91763 1.81001 8.55302C1.66142 8.39764 1.50544 8.21948 1.344 8.07901C1.21616 7.96778 1.07184 7.93394 1.04083 7.75315C0.847346 7.70571 0.704823 7.57603 0.528994 7.49154C0.358405 7.40953 0.183366 7.39241 0 7.35835V7.21479C0.367737 7.19896 0.687381 7.02733 0.994678 6.8397C1.50056 6.53086 1.94051 6.12464 2.36233 5.70878C2.6271 5.44781 2.88128 5.12623 3.18387 4.90917C3.84846 4.43239 4.87332 4.40555 5.63485 4.63065C5.52054 3.1821 6.46131 1.93156 7.82419 1.51185C7.96725 1.46781 8.11372 1.4008 8.26098 1.37388C8.39895 1.34869 8.53849 1.3778 8.67534 1.33911C8.82716 1.29622 9.07158 1.23129 9.18804 1.36459C9.38975 1.34715 9.44441 1.50596 9.40055 1.68757C9.32199 2.01278 9.12348 2.28953 9.0461 2.61757C8.95676 2.99626 8.9924 3.28704 9.03989 3.66479C9.06619 3.87407 9.04387 4.10309 9.0911 4.3076C9.26119 5.04361 9.67609 5.67522 10.4116 5.92918C11.6392 6.35309 13.2315 5.89559 13.9171 4.759C14.2697 4.17434 14.4596 3.65539 14.2639 2.97878C14.1899 2.72316 14.0656 2.42373 13.818 2.29775C13.7269 1.91185 13.0796 1.59422 12.7052 1.58058C12.4812 1.57247 12.2818 1.65096 12.0593 1.65172C12.0168 1.77385 11.9247 1.79079 11.8349 1.87596C11.7292 1.97635 11.6118 2.13437 11.5531 2.26796C11.4439 2.51622 11.4155 2.89774 11.4816 3.15898C11.5197 3.30965 11.6041 3.43527 11.6286 3.58982C11.9312 3.54086 11.9347 3.12424 11.9981 2.8781C12.0607 2.63498 12.3203 2.35047 12.5632 2.28224C13.1839 2.10785 13.6427 2.60612 13.6007 3.19362C13.5873 3.38108 13.4918 3.56434 13.4174 3.73338C13.2584 4.09477 13.0588 4.42704 12.7366 4.666C11.8672 5.31082 10.6424 4.82435 10.1337 3.95576C9.97961 3.69272 9.94807 3.41596 9.89656 3.12643C9.87449 3.0025 9.81732 2.89185 9.80432 2.7643C9.74625 2.19575 9.86078 1.62846 10.1419 1.1299C10.8157 -0.0651575 12.27 -0.180224 13.4592 0.180048C13.7841 0.27846 14.0954 0.45716 14.3648 0.663174C14.487 0.756597 14.5983 0.817577 14.6434 0.96979C14.9477 1.02075 15.1984 1.48647 15.3604 1.72752C15.8632 2.47552 16.1 3.47838 15.9605 4.37942C15.9172 4.65919 15.7193 4.88777 15.6843 5.16901C15.5193 5.24471 15.4769 5.40144 15.3622 5.53209C15.1582 5.76423 14.9289 5.97559 14.6885 6.16929C13.8848 6.81694 12.8942 7.26116 11.88 7.44589C11.6442 7.48885 11.4433 7.57165 11.1979 7.5737C11.372 7.72505 11.5993 7.65463 11.8081 7.71866C12.226 7.84686 12.652 7.93817 13.0642 8.08547C13.2663 8.15764 13.4563 8.32446 13.6744 8.32741C13.8305 8.4864 14.034 8.56751 14.2122 8.69503C14.5621 8.94545 14.8982 9.28171 15.1357 9.64105C15.3066 9.89978 15.3881 10.1901 15.4818 10.4809C15.9327 11.8797 15.7304 13.4951 14.6252 14.5483C14.1183 15.0314 13.4062 15.3464 12.7053 15.3947C12.3681 15.4179 12.0342 15.3618 11.7004 15.3243C11.38 15.2883 11.1717 15.2009 10.895 15.0463C10.7378 14.9585 10.5763 14.9001 10.516 14.716Z" fill="white"/>
</svg>
